HIERARCHY
ROOT Hips
{
	OFFSET 0.000000 0.000000 0.000000
	CHANNELS 6 Xposition Yposition Zposition Zrotation Yrotation Xrotation 
	JOINT LHipJoint
	{
		OFFSET 0.000000 0.000000 0.000000
		CHANNELS 3 Zrotation Yrotation Xrotation
		JOINT LeftUpLeg
		{
			OFFSET 1.363060 -1.794630 0.839290
			CHANNELS 3 Zrotation Yrotation Xrotation
			JOINT LeftLeg
			{
				OFFSET 2.448110 -6.726130 0.000000
				CHANNELS 3 Zrotation Yrotation Xrotation
				JOINT LeftFoot
				{
					OFFSET 2.562200 -7.039590 0.000000
					CHANNELS 3 Zrotation Yrotation Xrotation
					JOINT LeftToeBase
					{
						OFFSET 0.157640 -0.433110 2.322550
						CHANNELS 3 Zrotation Yrotation Xrotation
						End Site
						{
							OFFSET 0.000000 0.000000 0.000000
						}
					}
				}
			}
		}
	}
	JOINT RHipJoint
	{
		OFFSET 0.000000 0.000000 0.000000
		CHANNELS 3 Zrotation Yrotation Xrotation
		JOINT RightUpLeg
		{
			OFFSET -1.305520 -1.794630 0.839290
			CHANNELS 3 Zrotation Yrotation Xrotation
			JOINT RightLeg
			{
				OFFSET -2.542530 -6.985550 0.000000
				CHANNELS 3 Zrotation Yrotation Xrotation
				JOINT RightFoot
				{
					OFFSET -2.568260 -7.056230 0.000000
					CHANNELS 3 Zrotation Yrotation Xrotation
					JOINT RightToeBase
					{
						OFFSET -0.164730 -0.452590 2.363150
						CHANNELS 3 Zrotation Yrotation Xrotation
						End Site
						{
							OFFSET 0.000000 0.000000 0.000000
						}
					}
				}
			}
		}
	}
	JOINT LowerBack
	{
		OFFSET 0.000000 0.000000 0.000000
		CHANNELS 3 Zrotation Yrotation Xrotation
		JOINT Spine
		{
			OFFSET 0.028270 2.035590 -0.193380
			CHANNELS 3 Zrotation Yrotation Xrotation
			JOINT Spine1
			{
				OFFSET 0.056720 2.048850 -0.042750
				CHANNELS 3 Zrotation Yrotation Xrotation
				JOINT Neck
				{
					OFFSET 0.000000 0.000000 0.000000
					CHANNELS 3 Zrotation Yrotation Xrotation
					JOINT Neck1
					{
						OFFSET -0.054170 1.746240 0.172020
						CHANNELS 3 Zrotation Yrotation Xrotation
						JOINT Head
						{
							OFFSET 0.104070 1.761360 -0.123970
							CHANNELS 3 Zrotation Yrotation Xrotation
							End Site
							{
								OFFSET 0.000000 0.000000 0.000000
							}
						}
					}
				}
				JOINT LeftShoulder
				{
					OFFSET 0.000000 0.000000 0.000000
					CHANNELS 3 Zrotation Yrotation Xrotation
					JOINT LeftArm
					{
						OFFSET 3.362410 1.200890 -0.311210
						CHANNELS 3 Zrotation Yrotation Xrotation
						JOINT LeftForeArm
						{
							OFFSET 4.983000 -0.000000 -0.000000
							CHANNELS 3 Zrotation Yrotation Xrotation
							JOINT LeftHand
							{
								OFFSET 3.483560 -0.000000 -0.000000
								CHANNELS 3 Zrotation Yrotation Xrotation
								JOINT LeftFingerBase
								{
									OFFSET 0.000000 0.000000 0.000000
									CHANNELS 3 Zrotation Yrotation Xrotation
									JOINT LeftHandIndex1
									{
										OFFSET 0.715260 -0.000000 -0.000000
										CHANNELS 3 Zrotation Yrotation Xrotation
										End Site
										{
											OFFSET 0.000000 0.000000 0.000000
										}
									}
								}
								JOINT LThumb
								{
									OFFSET 0.000000 0.000000 0.000000
									CHANNELS 3 Zrotation Yrotation Xrotation
									End Site
									{
										OFFSET 0.000000 0.000000 0.000000
									}
								}
							}
						}
					}
				}
				JOINT RightShoulder
				{
					OFFSET 0.000000 0.000000 0.000000
					CHANNELS 3 Zrotation Yrotation Xrotation
					JOINT RightArm
					{
						OFFSET -3.136600 1.374050 -0.404650
						CHANNELS 3 Zrotation Yrotation Xrotation
						JOINT RightForeArm
						{
							OFFSET -5.241900 -0.000000 -0.000000
							CHANNELS 3 Zrotation Yrotation Xrotation
							JOINT RightHand
							{
								OFFSET -3.444170 -0.000000 -0.000000
								CHANNELS 3 Zrotation Yrotation Xrotation
								JOINT RightFingerBase
								{
									OFFSET 0.000000 0.000000 0.000000
									CHANNELS 3 Zrotation Yrotation Xrotation
									JOINT RightHandIndex1
									{
										OFFSET -0.622530 -0.000000 -0.000000
										CHANNELS 3 Zrotation Yrotation Xrotation
										End Site
										{
											OFFSET 0.000000 0.000000 0.000000
										}
									}
								}
								JOINT RThumb
								{
									OFFSET 0.000000 0.000000 0.000000
									CHANNELS 3 Zrotation Yrotation Xrotation
									End Site
									{
										OFFSET 0.000000 0.000000 0.000000
									}
								}
							}
						}
					}
				}
			}
		}
	}
}
MOTION
Frames: 8
Frame Time: 0.008333
0.490204 15.514742 1.976101 -34.533363 -79.209564 79.965504 -9.123130 -2.159035 2.865922 -9.562628 -7.103431 -83.156414 -1.396377 3.844460 56.487305 2.561273 5.076499 -23.247809 -1.620800 0.000000 -28.353900 8.020466 0.614540 0.553308 16.603095 2.042544 -87.625590 -1.644485 -7.410456 76.433226 -3.441363 -17.108108 7.765610 -5.741500 -0.000000 -65.557800 -0.543124 -2.861346 -0.287868 -0.688691 -2.887611 -2.904223 -5.410400 -2.849742 0.276360 11.390605 -18.477399 -11.312010 -1.258901 -0.005485 -1.449928 0.000000 0.000000 0.000000 14.270294 7.499414 0.328572 -62.940202 -1.231727 -1.967865 -179.042373 -67.472757 179.945133 6.056110 1.956448 0.081242 -0.177789 0.501305 0.000000 0.000000 0.000000 0.000000 0.000000 0.000000 0.000000 5.007071 -13.302292 1.263290 67.204149 -6.374593 19.077856 179.723501 82.382568 179.939337 -11.131050 4.120576 -0.451135 0.246044 -0.430187 0.000000 0.000000 0.000000 0.000000 0.000000 0.000000 0.000000 
0.488003 15.565099 2.005212 -37.389897 -79.015890 82.051413 -9.228159 -2.266954 2.666546 -9.371632 -6.143906 -82.095155 -1.419965 3.811166 56.130114 2.519184 5.002804 -23.211123 -1.605099 0.000000 -28.708800 7.906563 0.757368 0.561350 16.624046 2.690886 -88.208100 -1.969209 -7.380154 78.196687 -3.452088 -17.767742 11.699869 -6.930000 0.000000 -64.956401 -0.135748 -2.894547 -0.106313 -0.584252 -2.936071 -2.854613 -5.404574 -2.896993 0.327010 11.201216 -18.544596 -11.162176 -1.248446 -0.008097 -1.392196 0.000000 0.000000 0.000000 14.042622 7.561181 0.273024 -62.468136 -1.404150 -2.237052 -179.047218 -67.535472 179.942594 6.330946 2.082937 0.092369 -0.186454 0.496745 0.000000 0.000000 0.000000 0.000000 0.000000 0.000000 0.000000 4.794725 -13.456098 1.199091 66.946078 -6.648042 19.916386 179.736070 82.721976 179.941321 -11.041984 4.089651 -0.443560 0.243112 -0.421155 0.000000 0.000000 0.000000 0.000000 0.000000 0.000000 0.000000 
0.486238 15.616353 2.034305 -40.196333 -78.805419 84.083524 -9.338397 -2.379296 2.469636 -9.138278 -5.190486 -81.010644 -1.440035 3.771861 55.741491 2.482507 4.958919 -23.162970 -1.592400 0.000000 -29.064400 7.787521 0.888332 0.561164 16.701434 3.326678 -88.811094 -2.249159 -7.358698 79.927591 -3.413524 -18.032888 15.460073 -7.922800 -0.000000 -64.633500 0.278830 -2.928890 0.085608 -0.478578 -2.985419 -2.803380 -5.397906 -2.944958 0.375801 11.027513 -18.608312 -10.998368 -1.237923 -0.010930 -1.331051 0.000000 0.000000 0.000000 13.818258 7.620439 0.216254 -62.031791 -1.573639 -2.487682 -179.053593 -67.622110 179.940260 6.588350 2.194966 0.102994 -0.194344 0.492428 0.000000 0.000000 0.000000 0.000000 0.000000 0.000000 0.000000 4.583015 -13.608356 1.128631 66.645258 -6.890894 20.732029 179.744861 82.949491 179.943273 -10.937184 4.061218 -0.435684 0.240210 -0.412833 0.000000 0.000000 0.000000 0.000000 0.000000 0.000000 0.000000 
0.484586 15.668143 2.062843 -42.901347 -78.585641 86.020907 -9.449624 -2.492796 2.279152 -8.869748 -4.265508 -79.911182 -1.456083 3.725512 55.321325 2.453239 4.952161 -23.103834 -1.584200 0.000000 -29.383800 7.670164 1.007209 0.557243 16.816709 3.948395 -89.445089 -2.494108 -7.350602 81.618858 -3.328043 -17.870187 18.942456 -8.619700 -0.000000 -64.621600 0.685987 -2.963870 0.278110 -0.375280 -3.034698 -2.752662 -5.390832 -2.992753 0.422831 10.876386 -18.673473 -10.823180 -1.227188 -0.013922 -1.267258 0.000000 0.000000 0.000000 13.612896 7.670329 0.156595 -61.640554 -1.736484 -2.715070 -179.062233 -67.732767 179.938213 6.820249 2.288174 0.112518 -0.201129 0.488491 0.000000 0.000000 0.000000 0.000000 0.000000 0.000000 0.000000 4.379888 -13.763147 1.052960 66.310780 -7.106821 21.514465 179.749936 83.063907 179.945185 -10.815687 4.037657 -0.427806 0.237298 -0.405337 0.000000 0.000000 0.000000 0.000000 0.000000 0.000000 0.000000 
0.483084 15.720194 2.090910 -45.490273 -78.355427 87.855070 -9.562581 -2.608480 2.097954 -8.559075 -3.380545 -78.802500 -1.465984 3.671666 54.872080 2.432267 4.988915 -23.029053 -1.580900 -0.000000 -29.709900 7.555539 1.111540 0.550354 16.967097 4.558344 -90.110840 -2.713601 -7.358152 83.256253 -3.201258 -17.274954 22.063699 -8.953200 0.000000 -64.946901 1.087716 -2.996717 0.468198 -0.274082 -3.081363 -2.703274 -5.382746 -3.037862 0.467794 10.746238 -18.744403 -10.638956 -1.215602 -0.016970 -1.201641 0.000000 0.000000 0.000000 13.430780 7.706649 0.093167 -61.304229 -1.897258 -2.916013 -179.073426 -67.866435 179.936487 7.022218 2.360969 0.120640 -0.206631 0.485047 0.000000 0.000000 0.000000 0.000000 0.000000 0.000000 0.000000 4.181309 -13.923116 0.973945 65.954795 -7.295521 22.249669 179.751672 83.072015 179.947037 -10.678061 4.022558 -0.420226 0.234308 -0.398783 0.000000 0.000000 0.000000 0.000000 0.000000 0.000000 0.000000 
0.481634 15.772293 2.118470 -47.961751 -78.119354 89.592894 -9.675239 -2.724947 1.927736 -8.210626 -2.545479 -77.692350 -1.469227 3.610456 54.395472 2.420357 5.072828 -22.936347 -1.583000 0.000000 -30.046500 7.445919 1.201347 0.543592 17.142352 5.160514 -90.820353 -2.917683 -7.383372 84.829661 -3.040564 -16.268510 24.742209 -8.890800 0.000000 -65.513801 1.480337 -3.025808 0.650743 -0.176022 -3.123795 -2.656455 -5.373633 -3.078727 0.510407 10.636761 -18.823176 -10.448360 -1.202974 -0.020005 -1.135054 0.000000 0.000000 0.000000 13.275736 7.725716 0.025843 -61.026879 -2.052368 -3.091017 -179.087228 -68.020037 179.935104 7.191645 2.412690 0.126955 -0.210758 0.482134 -0.000000 0.000000 0.000000 0.000000 0.000000 0.000000 0.000000 3.987135 -14.088765 0.893166 65.588559 -7.456000 22.928348 179.750499 82.984491 179.948804 -10.527887 4.016775 -0.413244 0.231258 -0.393214 0.000000 0.000000 0.000000 0.000000 0.000000 0.000000 0.000000 
0.480061 15.824238 2.145134 -50.334713 -77.888489 91.261998 -9.781896 -2.837772 1.768250 -7.842272 -1.767044 -76.588591 -1.467354 3.542422 53.891607 2.418212 5.204294 -22.828021 -1.591100 -0.000000 -30.336400 7.345126 1.280121 0.543023 17.321104 5.762398 -91.594071 -3.115298 -7.426960 86.330659 -2.855524 -14.912027 26.915517 -8.451300 -0.000000 -66.199200 1.852456 -3.050558 0.818235 -0.083861 -3.161105 -2.613981 -5.364045 -3.114536 0.550072 10.548684 -18.907013 -10.253514 -1.189913 -0.023040 -1.068094 0.000000 0.000000 0.000000 13.153194 7.724422 -0.045107 -60.808300 -2.189745 -3.244851 -179.103380 -68.182721 179.934076 7.327053 2.443230 0.131570 -0.213487 0.479752 -0.000000 0.000000 0.000000 0.000000 0.000000 0.000000 0.000000 3.801059 -14.255495 0.811549 65.223806 -7.589340 23.543400 179.746898 82.814758 179.950456 -10.370015 4.020303 -0.406961 0.228196 -0.388638 0.000000 0.000000 0.000000 0.000000 0.000000 0.000000 0.000000 
0.478404 15.875917 2.171062 -52.645609 -77.664579 92.903897 -9.881296 -2.946496 1.618024 -7.459374 -1.041464 -75.496906 -1.460847 3.468709 53.362594 2.425354 5.381344 -22.702691 -1.604400 0.000000 -30.591999 7.251629 1.349146 0.550791 17.496475 6.373331 -92.441408 -3.311193 -7.487402 87.744972 -2.656757 -13.309342 28.556413 -7.707200 0.000000 -66.908200 2.206617 -3.069054 0.970301 0.002824 -3.191541 -2.576124 -5.354028 -3.143555 0.586039 10.477443 -18.993011 -10.056556 -1.176613 -0.026048 -1.001492 0.000000 0.000000 0.000000 13.058934 7.703175 -0.118446 -60.646835 -2.305933 -3.382191 -179.121294 -68.347064 179.933374 7.430327 2.454950 0.134276 -0.214933 0.477859 0.000000 0.000000 0.000000 0.000000 0.000000 0.000000 0.000000 3.619214 -14.418392 0.730577 64.872120 -7.693164 24.087195 179.741488 82.579903 179.951964 -10.210494 4.033149 -0.401475 0.225173 -0.385049 0.000000 0.000000 0.000000 0.000000 0.000000 0.000000 0.000000 
